<?xml version="1.0" encoding="UTF-8" standalone="no"?>
<!-- Created with Inkscape (http://www.inkscape.org/) -->

<svg
   width="254.30962mm"
   height="343.98679mm"
   viewBox="0 0 254.30962 343.98679"
   version="1.1"
   id="svg1"
   xml:space="preserve"
   inkscape:version="1.4.2 (f4327f4, 2025-05-13)"
   sodipodi:docname="logo_r.svg"
   xmlns:inkscape="http://www.inkscape.org/namespaces/inkscape"
   xmlns:sodipodi="http://sodipodi.sourceforge.net/DTD/sodipodi-0.dtd"
   xmlns="http://www.w3.org/2000/svg"
   xmlns:svg="http://www.w3.org/2000/svg"><sodipodi:namedview
     id="namedview1"
     pagecolor="#5b5b5b"
     bordercolor="#000000"
     borderopacity="0.36078431"
     inkscape:showpageshadow="false"
     inkscape:pageopacity="0.0"
     inkscape:pagecheckerboard="0"
     inkscape:deskcolor="#cfcfcf"
     inkscape:document-units="mm"
     inkscape:zoom="0.5"
     inkscape:cx="17"
     inkscape:cy="713"
     inkscape:window-width="1920"
     inkscape:window-height="1009"
     inkscape:window-x="-8"
     inkscape:window-y="-8"
     inkscape:window-maximized="1"
     inkscape:current-layer="svg1"
     borderlayer="false"
     showborder="true"
     labelstyle="default" /><defs
     id="defs1" /><g
     inkscape:label="Layer 1"
     inkscape:groupmode="layer"
     id="layer1"
     transform="translate(275.55751,117.76804)"><path
       style="display:inline;fill:#ffffff;fill-opacity:1"
       d="m -114.30745,180.19797 -54.84662,-46.02079 -1.87557,-0.30846 c -1.03156,-0.16966 -3.42338,-0.65812 -5.31515,-1.08547 -1.89177,-0.42735 -3.75912,-0.84515 -4.14966,-0.92844 -0.64165,-0.13684 -0.72387,-0.0657 -0.85334,0.73803 -0.0788,0.4892 -1.87197,20.76231 -3.9848,45.05134 -2.11284,24.28904 -3.89404,44.2144 -3.95822,44.27858 -0.13139,0.13139 -65.30428,-5.51446 -65.48938,-5.67327 -0.0653,-0.056 2.30632,-27.82761 5.27027,-61.71463 l 5.389,-61.612755 -3.15754,-3.929279 c -16.0203,-19.93587 -25.07109,-41.906079 -27.9415,-67.826153 -0.45007,-4.064172 -0.45007,-20.27749464 0,-24.3416669 1.651,-14.9087311 4.99059,-27.2851831 10.86726,-40.2739301 6.31739,-13.962811 14.69116,-25.99843 25.82392,-37.116695 12.84945,-12.83271 26.99725,-22.119271 43.53086,-28.573461 27.10832,-10.58222 57.43503,-11.46166 85.18297,-2.47021 15.086088,4.8885 28.754125,12.413391 41.68474,22.949395 4.456224,3.630979 13.26145,12.433631 16.864789,16.859859 13.727486,16.862411 22.695914,35.826139 26.761192,56.5865 1.722545,8.7966109 2.140305,13.5219709 2.140305,24.2093754 0,10.6874046 -0.41776,15.4127646 -2.140305,24.2093746 -4.065278,20.760361 -13.033706,39.72409 -26.761192,56.586501 -3.603339,4.426227 -12.408565,13.228875 -16.864789,16.859855 -6.268627,5.10775 -13.682462,10.16606 -19.579167,13.35848 -1.164167,0.63027 -2.339672,1.3091 -2.612234,1.50851 -0.45465,0.33263 2.352538,2.75055 33.998958,29.2843 18.971989,15.90696 34.714583,29.12879 34.983542,29.38185 0.470868,0.44304 -0.220553,1.30574 -18.631501,23.24708 -10.516284,12.53283 -19.203699,22.78697 -19.305367,22.78697 -0.101669,0 -24.86583,-20.70936 -55.031471,-46.02079 z m -29.75818,-97.393656 c 10.2277,-0.752981 19.18734,-3.200407 28.17813,-7.697171 14.36344,-7.183909 26.03353,-18.885385 33.081706,-33.170679 4.631485,-9.387128 6.930528,-17.925693 7.676122,-28.508854 1.076957,-15.2866208 -3.402081,-32.035213 -12.042906,-45.032367 -3.019401,-4.541653 -5.682623,-7.798528 -9.532632,-11.657532 -16.81892,-16.858216 -40.70763,-24.582636 -64.18126,-20.753029 -23.34433,3.808512 -43.79206,18.917731 -54.22857,40.070532 -4.63149,9.387129 -6.93053,17.9256935 -7.67613,28.5088546 -1.07695,15.2866214 3.40209,32.0352134 12.04291,45.0323674 7.46718,11.231803 17.1907,19.809709 29.1118,25.681875 5.32111,2.621102 9.69742,4.235045 14.94896,5.513039 7.98791,1.943907 15.03835,2.571276 22.62187,2.012964 z"
       id="path1" /></g></svg>
